Coordinates
version=1
nRows=16
nColumns=40
inDegrees=yes

Units are S.I. units (second, meters, Newtons, ...)
Angles are in degrees.

endheader
time	pelvis_tilt	pelvis_list	pelvis_rotation	pelvis_tx	pelvis_ty	pelvis_tz	hip_flexion_r	hip_adduction_r	hip_rotation_r	knee_angle_r	knee_angle_r_beta	ankle_angle_r	subtalar_angle_r	mtp_angle_r	hip_flexion_l	hip_adduction_l	hip_rotation_l	knee_angle_l	knee_angle_l_beta	ankle_angle_l	subtalar_angle_l	mtp_angle_l	lumbar_extension	lumbar_bending	lumbar_rotation	arm_flex_r	arm_add_r	arm_rot_r	elbow_flex_r	pro_sup_r	wrist_flex_r	wrist_dev_r	arm_flex_l	arm_add_l	arm_rot_l	elbow_flex_l	pro_sup_l	wrist_flex_l	wrist_dev_l
     41.19000000	     -8.26858921	     -6.95806669	      2.21876062	      0.98285179	      0.92384047	      0.50145746	     18.48205374	      4.31466825	    -16.06853031	     14.68979016	     14.68979016	      6.99483859	      0.82456699	     -4.82242545	     40.94158117	    -11.14548782	      8.18007384	     71.22843604	     71.22843604	      6.37071496	    -18.84239110	     13.13758014	    -12.89021203	      5.48163644	      4.63296039	      4.25380273	    -15.35056765	     -1.74900845	     49.03646509	     45.88490217	      0.00000000	      0.00000000	      6.42725923	     -7.86338089	     -5.39729256	     52.40656772	     45.95866608	      0.00000000	      0.00000000
     41.20135714	     -8.29781619	     -6.92315659	      2.43565540	      0.98121559	      0.92389582	      0.50186989	     18.04164800	      4.34752595	    -15.87223093	     14.67596266	     14.67596266	      7.38514779	      0.40349323	     -4.91971639	     42.29178929	    -11.09607323	      7.88207137	     69.93316100	     69.93316100	      6.80822657	    -18.99440816	     13.51298063	    -12.92219260	      5.30958677	      3.76752724	      6.88368140	    -15.22577645	     -1.98600046	     51.08081478	     45.83211577	      0.00000000	      0.00000000	      4.87848921	     -8.02291580	     -5.22858769	     49.71924346	     45.91746708	      0.00000000	      0.00000000
     41.21271429	     -8.32318084	     -6.90731504	      2.66749472	      0.97957198	      0.92394951	      0.50214328	     17.63093905	      4.38482463	    -15.71287480	     14.71045181	     14.71045181	      7.75354549	     -0.08637333	     -4.99982062	     43.54201650	    -10.92647468	      7.70607626	     68.53219401	     68.53219401	      7.72491339	    -19.09529968	     15.63916604	    -12.86336671	      5.25607517	      4.21871720	      8.02097062	    -16.04846811	     -1.24926879	     54.91890622	     45.65288566	      0.00000000	      0.00000000	      6.24015905	     -7.23542802	     -5.37777799	     41.09322792	     45.97460345	      0.00000000	      0.00000000
     41.22407143	     -8.32248282	     -6.87020699	      2.87976900	      0.97803448	      0.92393253	      0.50236085	     17.18713936	      4.37948187	    -15.66349320	     14.75704357	     14.75704357	      8.19400841	     -0.29549010	     -5.07235096	     44.55451080	    -10.80716571	      7.39028383	     66.85236643	     66.85236643	      8.03587650	    -19.16577391	     16.01703997	    -12.91680309	      5.12536806	      3.35568993	     10.61782259	    -15.76150204	     -1.60045375	     57.20654324	     45.59746258	      0.00000000	      0.00000000	      4.86466429	     -7.37262541	     -5.20116988	     38.41677744	     45.94145418	      0.00000000	      0.00000000
     41.23542857	     -8.36694726	     -6.86336178	      3.04986792	      0.97651140	      0.92381879	      0.50246716	     16.81647255	      4.39591067	    -15.61316750	     14.83708082	     14.83708082	      8.67964070	     -0.45048716	     -4.90308811	     45.48475299	    -10.59618116	      7.23062828	     65.04915587	     65.04915587	      8.63729697	    -19.19690142	     17.30049211	    -12.87135496	      5.07857223	      3.93095446	     11.83996804	    -16.56806483	     -1.39379463	     60.71794607	     45.46710622	      0.00000000	      0.00000000	      6.12752846	     -6.71848179	     -4.95676399	     30.76616724	     45.99019786	      0.00000000	      0.00000000
     41.24678571	     -8.39469468	     -6.80194411	      3.17065965	      0.97509388	      0.92370237	      0.50245671	     16.39205969	      4.36271964	    -15.51365197	     14.85352538	     14.85352538	      9.10122241	     -0.53241695	     -5.00843179	     46.18445650	    -10.35327882	      6.99899871	     62.98635922	     62.98635922	      8.79567559	    -19.17965364	     17.49328049	    -12.89170417	      4.93391385	      4.00361142	     14.16764752	    -16.77381887	     -1.78656735	     62.21092271	     45.44188710	      0.00000000	      0.00000000	      4.90763610	     -6.62477852	     -4.89086849	     29.54741419	     45.96744633	      0.00000000	      0.00000000
     41.25814286	     -8.39246275	     -6.77622624	      3.31309759	      0.97374487	      0.92360027	      0.50227496	     15.98212138	      4.32681721	    -15.56960322	     14.98188159	     14.98188159	      9.59988218	     -0.54370958	     -4.75299214	     46.69099115	    -10.03906359	      6.94570404	     60.70920288	     60.70920288	      8.85364839	    -19.12863690	     17.36201512	    -12.95426314	      4.86924240	      3.74908892	     15.85691768	    -16.92552494	     -1.52422068	     66.13848609	     45.30715182	      0.00000000	      0.00000000	      5.13716323	     -6.44710141	     -4.53458765	     24.11657766	     45.99005974	      0.00000000	      0.00000000
     41.26950000	     -8.40898109	     -6.70419701	      3.39257449	      0.97248406	      0.92348873	      0.50193630	     15.53470411	      4.26129996	    -15.50762328	     15.00124139	     15.00124139	      9.99169028	     -0.55434284	     -4.80252912	     47.02532351	     -9.63414873	      6.95292374	     58.23872786	     58.23872786	      8.94685190	    -19.01082307	     17.32590578	    -12.97628736	      4.74579521	      3.42381773	     18.25166960	    -16.66444790	     -1.85840713	     68.25499796	     45.25960836	      0.00000000	      0.00000000	      3.86553773	     -6.45536291	     -4.46516709	     22.87278690	     45.96961235	      0.00000000	      0.00000000
     41.28085714	     -8.48204129	     -6.69092193	      3.44218767	      0.97129689	      0.92323674	      0.50141727	     15.13178863	      4.22915536	    -15.55570297	     15.00594157	     15.00594157	     10.41343339	     -0.38580615	     -4.77549937	     47.27436685	     -9.24378481	      7.09343149	     55.59802045	     55.59802045	      8.85821676	    -18.78756298	     16.72166669	    -12.92462197	      4.73029920	      3.25443368	     20.43701599	    -16.63638235	     -1.84511989	     70.93123293	     45.18193563	      0.00000000	      0.00000000	      2.73939946	     -6.39436507	     -4.29403600	     21.56551193	     45.93721588	      0.00000000	      0.00000000
     41.29221429	     -8.50942924	     -6.65743238	      3.42796367	      0.97035488	      0.92304220	      0.50076779	     14.64689407	      4.17174929	    -15.56477722	     15.00899390	     15.00899390	     11.00263548	      0.03340973	     -4.54600451	     47.20700793	     -8.88246470	      7.25403215	     52.65836662	     52.65836662	      8.39076511	    -18.45789012	     14.71833008	    -12.92175788	      4.69993278	      3.58306777	     22.04586672	    -17.21641309	     -1.49969622	     74.37235030	     45.07402572	      0.00000000	      0.00000000	      1.77117931	     -6.26940613	     -3.83724985	     20.75195872	     45.85394314	      0.00000000	      0.00000000
     41.30357143	     -8.57102451	     -6.60225740	      3.37512455	      0.96943006	      0.92288046	      0.49998301	     14.13280463	      4.11957636	    -15.52910506	     14.85399376	     14.85399376	     11.29983497	      0.18526181	     -4.53688528	     47.07848994	     -8.48141727	      7.49449039	     49.70650819	     49.70650819	      8.52350843	    -17.88024597	     14.43104696	    -12.90309060	      4.65057357	      3.57533866	     24.47761357	    -16.91700486	     -1.72469423	     76.43841948	     45.02729773	      0.00000000	      0.00000000	      0.47794423	     -6.26521813	     -3.68485439	     20.27310017	     45.79944488	      0.00000000	      0.00000000
     41.31492857	     -8.60816874	     -6.66922300	      3.31444581	      0.96879017	      0.92265660	      0.49914183	     13.53439995	      4.18583345	    -15.62281778	     14.63647461	     14.63647461	     11.67133395	      0.63312249	     -4.48163603	     46.78375918	     -8.28139561	      7.74334661	     46.63775186	     46.63775186	      8.50356492	    -16.98382879	     13.50855275	    -12.82567228	      4.75360762	      3.46817923	     26.66915762	    -16.71184952	     -1.62632252	     79.23201740	     44.94817577	      0.00000000	      0.00000000	     -1.03997030	     -6.22623232	     -3.40727966	     20.40848116	     45.69970786	      0.00000000	      0.00000000
     41.32628571	     -8.62168416	     -6.70708617	      3.18180312	      0.96840966	      0.92244820	      0.49820680	     12.85613031	      4.23626826	    -15.60811004	     14.35493314	     14.35493314	     12.03491412	      1.10934777	     -4.41752702	     46.28844869	     -8.15604963	      7.88349328	     43.52363114	     43.52363114	      8.65511650	    -15.84700000	     12.70763922	    -12.73421333	      4.81833711	      3.63336955	     28.79825334	    -16.66444265	     -1.50097191	     81.75734252	     44.87787827	      0.00000000	      0.00000000	     -2.52045448	     -6.18953667	     -3.08217457	     20.88139337	     45.58332584	      0.00000000	      0.00000000
     41.33764286	     -8.65101190	     -6.79095884	      3.00130282	      0.96824439	      0.92210170	      0.49718632	     12.18163514	      4.31567467	    -15.65029450	     14.09705462	     14.09705462	     12.55879036	      1.80563362	     -4.08039775	     45.61097672	     -8.15875719	      7.91004171	     40.26011838	     40.26011838	      8.15497393	    -14.91438594	     10.49448920	    -12.69986017	      4.96137337	      3.99169896	     30.60785407	    -17.04686414	     -0.98977921	     84.97098305	     44.79962836	      0.00000000	      0.00000000	     -4.77978152	     -6.48687865	     -1.16437574	     23.66016678	     45.10429721	      0.00000000	      0.00000000
     41.34900000	     -8.66660871	     -6.83314181	      2.79844019	      0.96835753	      0.92175454	      0.49604920	     11.41190800	      4.38981163	    -15.49746876	     13.69354906	     13.69354906	     12.85474190	      2.16844697	     -4.11514633	     44.85975373	     -8.14604505	      7.85751040	     37.25861636	     37.25861636	      8.53492688	    -13.79398962	     10.73583949	    -12.51210556	      5.03861253	      4.20399989	     32.87110000	    -16.69564728	     -1.09471422	     86.57612266	     44.76498152	      0.00000000	      0.00000000	     -6.00632833	     -6.40709394	     -0.83760738	     23.46468153	     45.02058282	      0.00000000	      0.00000000
     41.36035714	     -8.60087823	     -6.97179230	      2.58515676	      0.96884729	      0.92138816	      0.49483381	     10.44604107	      4.57623980	    -15.41901505	     13.13408178	     13.13408178	     13.15651227	      2.75599586	     -4.11542563	     43.95109743	     -8.29186458	      7.66106904	     34.42865928	     34.42865928	      8.84945636	    -12.73929228	     11.03478062	    -12.40125892	      5.25205693	      4.26677144	     34.96243787	    -16.24034237	     -0.92689338	     88.67700237	     44.70659897	      0.00000000	      0.00000000	     -7.50270856	     -6.35734454	     -0.44876601	     23.73980601	     44.91354693	      0.00000000	      0.00000000
